<?xml version="1.0" standalone="no"?><!DOCTYPE svg PUBLIC "-//W3C//DTD SVG 1.1//EN" "http://www.w3.org/Graphics/SVG/1.1/DTD/svg11.dtd"><svg t="1652750394409" class="icon" viewBox="0 0 1073 1024" version="1.1" xmlns="http://www.w3.org/2000/svg" p-id="4283" xmlns:xlink="http://www.w3.org/1999/xlink" width="209.5703125" height="200"><defs><style type="text/css">@font-face { font-family: feedback-iconfont; src: url("//at.alicdn.com/t/font_1031158_u69w8yhxdu.woff2?t=1630033759944") format("woff2"), url("//at.alicdn.com/t/font_1031158_u69w8yhxdu.woff?t=1630033759944") format("woff"), url("//at.alicdn.com/t/font_1031158_u69w8yhxdu.ttf?t=1630033759944") format("truetype"); }
</style></defs><path d="M492.624748 478.497334c-131.92925 0-239.248667-107.319417-239.248667-239.248667S360.756656 0 492.624748 0s239.248667 107.331649 239.248667 239.248667-107.331649 239.248667-239.248667 239.248667z m0-405.108172c-91.455127 0-165.859505 74.404378-165.859506 165.859505s74.404378 165.859505 165.859506 165.859505 165.859505-74.404378 165.859505-165.859505S584.079875 73.389162 492.624748 73.389162z" p-id="4284"></path><path d="M603.625855 935.075772H36.694581a36.694581 36.694581 0 0 1-36.694581-36.694581 492.759294 492.759294 0 0 1 736.545858-428.103443c9.491665 5.418566 18.909941 11.228542 28.022428 17.270916a36.694581 36.694581 0 0 1-40.53528 61.145403c-7.754788-5.137241-15.77867-10.078778-23.851478-14.677832a419.101039 419.101039 0 0 0-207.532317-54.882862c-218.809785 0-399.00464 168.489284-417.645488 382.541006h528.646595a36.694581 36.694581 0 0 1 0 73.389161z" p-id="4285"></path><path d="M492.624748 836.13495a26.909359 26.909359 0 0 1-19.692759-8.562069l-62.894511-67.469102a26.909359 26.909359 0 0 1-7.082054-21.099384l20.096398-195.508727a26.909359 26.909359 0 0 1 26.762581-24.157266h85.620689a26.909359 26.909359 0 0 1 26.774812 24.157266l20.071936 195.520958a26.909359 26.909359 0 0 1-7.082054 21.099384l-62.894512 67.456871a26.909359 26.909359 0 0 1-19.680526 8.562069z m-34.884315-103.784506l34.884315 37.416241 34.872083-37.416241-16.292394-159.193323h-37.098221z" p-id="4286"></path><path d="M799.305823 1023.998973a274.475465 274.475465 0 1 1 194.089869-80.397827 272.67743 272.67743 0 0 1-194.089869 80.397827z m0-475.561768c-110.878792 0-201.086303 90.207511-201.086303 201.086303s90.207511 201.086303 201.086303 201.086303 201.086303-90.207511 201.086303-201.086303-90.207511-201.086303-201.086303-201.086303z" p-id="4287"></path><path d="M851.999241 745.890744h-105.374605a26.909359 26.909359 0 0 1 0-53.818718h105.374605a26.909359 26.909359 0 1 1 0 53.818718zM862.946457 832.257556H735.677419a26.909359 26.909359 0 0 1 0-53.818718h127.269038a26.909359 26.909359 0 0 1 0 53.818718z" p-id="4288"></path><path d="M799.305823 913.19357a26.909359 26.909359 0 0 1-26.90936-26.909359V718.981385a26.909359 26.909359 0 0 1 53.818719 0v167.302826a26.909359 26.909359 0 0 1-26.909359 26.909359z" p-id="4289"></path><path d="M783.258059 722.919937a26.909359 26.909359 0 0 1-23.753625-14.286424l-31.23932-58.79695a26.909359 26.909359 0 0 1 47.495019-25.307029l31.23932 58.809182a26.909359 26.909359 0 0 1-23.741394 39.532295z" p-id="4290"></path><path d="M815.365817 722.919937a26.909359 26.909359 0 0 1-23.741393-39.532295l31.23932-58.858108a26.913029 26.913029 0 0 1 47.531713 25.258103l-31.23932 58.79695a26.909359 26.909359 0 0 1-23.79032 14.33535z" p-id="4291"></path></svg>