<?xml version="1.0" standalone="no"?><!DOCTYPE svg PUBLIC "-//W3C//DTD SVG 1.1//EN" "http://www.w3.org/Graphics/SVG/1.1/DTD/svg11.dtd"><svg t="1652694432957" class="icon" viewBox="0 0 1024 1024" version="1.1" xmlns="http://www.w3.org/2000/svg" p-id="2863" xmlns:xlink="http://www.w3.org/1999/xlink" width="200" height="200"><defs><style type="text/css">@font-face { font-family: feedback-iconfont; src: url("//at.alicdn.com/t/font_1031158_u69w8yhxdu.woff2?t=1630033759944") format("woff2"), url("//at.alicdn.com/t/font_1031158_u69w8yhxdu.woff?t=1630033759944") format("woff"), url("//at.alicdn.com/t/font_1031158_u69w8yhxdu.ttf?t=1630033759944") format("truetype"); }
</style></defs><path d="M672.512 447.936a32 32 0 0 0 0-64H560.896l-1.152-1.152 102.464-102.336a33.472 33.472 0 0 0-47.296-47.296l-102.4 102.4-102.4-102.4a33.472 33.472 0 0 0-47.296 47.296l102.4 102.4-1.152 1.088H352.448a32 32 0 0 0 0 64h128v64h-128a32 32 0 0 0 0 64h128v96a32 32 0 0 0 64 0v-96h128a32 32 0 0 0 0-64h-128v-64h128.064z m275.008 64.256c-23.744-42.496-60.736-31.872-60.736-31.872h-54.272V191.936a128 128 0 0 0-128-128h-384a128 128 0 0 0-128 128v288.448h-65.92s-23.808-6.144-41.408 18.304c-33.28 46.272-27.456 90.688 16.064 134.208l321.6 290.24c49.28 49.344 129.024 49.344 178.304 0l321.6-290.24c39.232-39.36 47.872-79.36 24.768-120.704z m-69.312 75.84l-321.6 289.6a62.976 62.976 0 0 1-89.152 0L145.792 588.032c-12.096-32.512-13.504-22.016 0.96-44.16h109.696v-352a64 64 0 0 1 64-64h384a64 64 0 0 1 64 64v352h109.76c7.872 22.4 13.056 17.472 0 44.16z" fill="" p-id="2864"></path></svg>