<?xml version="1.0" standalone="no"?><!DOCTYPE svg PUBLIC "-//W3C//DTD SVG 1.1//EN" "http://www.w3.org/Graphics/SVG/1.1/DTD/svg11.dtd"><svg t="1652694769909" class="icon" viewBox="0 0 1024 1024" version="1.1" xmlns="http://www.w3.org/2000/svg" p-id="3726" xmlns:xlink="http://www.w3.org/1999/xlink" width="200" height="200"><defs><style type="text/css">@font-face { font-family: feedback-iconfont; src: url("//at.alicdn.com/t/font_1031158_u69w8yhxdu.woff2?t=1630033759944") format("woff2"), url("//at.alicdn.com/t/font_1031158_u69w8yhxdu.woff?t=1630033759944") format("woff"), url("//at.alicdn.com/t/font_1031158_u69w8yhxdu.ttf?t=1630033759944") format("truetype"); }
</style></defs><path d="M933.6 360.8c0 17.6-14.4 32-32 32-13.6 0-25.6-8.8-29.6-20.8-56.8-142.4-196-244-358.4-244-212 0-384 172-384 384s172 384 384 384c80.8 0 156.8-25.6 218.4-68.8L674.4 768h159.2v163.2l-56-56.8C704 928 612.8 960 513.6 960c-247.2 0-448-200.8-448-448s200.8-448 448-448c189.6 0 351.2 117.6 416.8 283.2 0.8 0.8 0.8 1.6 0.8 2.4 0 0.8 0.8 1.6 0.8 2.4 0.8 3.2 1.6 5.6 1.6 8.8zM704 512v-64H548l145.6-145.6-45.6-45.6-136 136-136-136-45.6 45.6L477.6 448H320v64h160v64H320v64h160v192h64V640h160v-64H544v-64h160z" p-id="3727"></path></svg>