<?xml version="1.0" standalone="no"?><!DOCTYPE svg PUBLIC "-//W3C//DTD SVG 1.1//EN" "http://www.w3.org/Graphics/SVG/1.1/DTD/svg11.dtd"><svg class="icon" width="200px" height="200.00px" viewBox="0 0 1024 1024" version="1.1" xmlns="http://www.w3.org/2000/svg"><path fill="#bfcbd9" d="M369.225143 482.742857a55.003429 55.003429 0 1 0 0 109.933714 55.003429 55.003429 0 0 0 0-109.933714z m491.739428-307.2H157.769143A85.650286 85.650286 0 0 0 73.142857 263.314286v482.742857a85.650286 85.650286 0 0 0 84.626286 87.771428h222.061714l-74.020571 52.882286a45.494857 45.494857 0 0 0-5.266286 61.293714 40.228571 40.228571 0 0 0 58.148571 8.996572L512 844.946286l148.041143 112.054857a40.228571 40.228571 0 0 0 58.148571-8.996572 45.494857 45.494857 0 0 0-5.266285-61.293714L638.902857 833.828571h222.061714A90.404571 90.404571 0 0 0 950.857143 746.057143V263.314286a90.404571 90.404571 0 0 0-89.892572-87.771429zM369.225143 658.285714a120.539429 120.539429 0 1 1 116.297143-120.539428A119.954286 119.954286 0 0 1 369.298286 658.285714z m269.677714-43.885714a41.252571 41.252571 0 0 1-42.276571 43.885714 44.397714 44.397714 0 0 1-42.349715-43.885714V504.393143a44.397714 44.397714 0 0 1 42.349715-43.885714 41.252571 41.252571 0 0 1 42.276571 43.885714V614.4z m132.169143 0a42.276571 42.276571 0 1 1-84.553143 0v-219.428571a42.276571 42.276571 0 0 1 84.553143 0v219.428571z" /></svg>