<?xml version="1.0" standalone="no"?><!DOCTYPE svg PUBLIC "-//W3C//DTD SVG 1.1//EN" "http://www.w3.org/Graphics/SVG/1.1/DTD/svg11.dtd"><svg t="1653271707344" class="icon" viewBox="0 0 1024 1024" version="1.1" xmlns="http://www.w3.org/2000/svg" p-id="2890" xmlns:xlink="http://www.w3.org/1999/xlink" width="200" height="200"><defs><style type="text/css">@font-face { font-family: feedback-iconfont; src: url("//at.alicdn.com/t/font_1031158_u69w8yhxdu.woff2?t=1630033759944") format("woff2"), url("//at.alicdn.com/t/font_1031158_u69w8yhxdu.woff?t=1630033759944") format("woff"), url("//at.alicdn.com/t/font_1031158_u69w8yhxdu.ttf?t=1630033759944") format("truetype"); }
</style></defs><path d="M443.732594 1023.998293A692.478846 692.478846 0 0 1 0 864.425226v-197.546337h705.278825a37.97327 37.97327 0 0 1 0 75.519874H417.279305a46.506589 46.506589 0 0 0 0 92.586512h287.99952a123.733127 123.733127 0 0 0 117.759803-127.999787h3.839994l166.826388-50.346582a38.826602 38.826602 0 0 1 30.293283 37.97327 42.666596 42.666596 0 0 1-11.51998 29.439951c-3.839994 4.26666-3.839994 8.106653-7.253322 12.373312A706.132156 706.132156 0 0 1 443.732594 1023.998293zM533.75911 0a305.492824 305.492824 0 0 0-296.106173 314.026143 305.492824 305.492824 0 0 0 296.106173 314.026144 305.91949 305.91949 0 0 0 298.666169-314.026144 305.91949 305.91949 0 0 0-298.666169-314.026143z m127.999787 383.99936a23.466628 23.466628 0 0 1-23.039962 23.466628h-77.653203v46.933255a25.599957 25.599957 0 0 1-51.199915 0V408.745985H426.665956A23.466628 23.466628 0 0 1 404.479326 383.99936a23.039962 23.039962 0 0 1 22.18663-21.759964h85.333191v-26.879955h-85.333191a23.039962 23.039962 0 0 1-23.039962-23.039962 23.466628 23.466628 0 0 1 23.039962-23.466627h62.293229L419.412634 185.599691a23.893294 23.893294 0 0 1 0-32.853279 23.466628 23.466628 0 0 1 32.853279 0 16.213306 16.213306 0 0 1 3.839993 5.546658l76.799872 110.933148 77.226538-110.933148a23.039962 23.039962 0 0 1 32.426613 0 23.466628 23.466628 0 0 1 5.119992 27.306621l-69.546551 103.253161H639.998933a23.466628 23.466628 0 0 1 23.039962 23.466627 23.039962 23.039962 0 0 1-23.039962 23.039962h-78.933201v26.879955H639.998933a22.18663 22.18663 0 0 1 22.18663 22.613296z" p-id="2891"></path></svg>